<svg xmlns="http://www.w3.org/2000/svg" viewBox="0.01 0 395.49 45.58">
  <svg viewBox="0 0 395.52 45.58134838923945" height="45.58134838923945" width="395.52">
    <g>
      <svg viewBox="0 0 395.52 45.58134838923945" height="45.58134838923945" width="395.52">
        <g>
          <svg viewBox="0 0 395.52 45.58134838923945" height="45.58134838923945" width="395.52">
            <g id="textblocktransform">
              <svg viewBox="0 0 395.52 45.58134838923945" height="45.58134838923945" width="395.52" id="textblock">
                <g>
                  <svg viewBox="0 0 395.52 45.58134838923945" height="45.58134838923945" width="395.52">
                    <g transform="matrix(1,0,0,1,0,0)">
                      <svg width="395.52" viewBox="1.9500000476837158 -34.29999923706055 301.0799865722656 34.70000076293945" height="45.58134838923945" data-palette-color="#010c80">
                        <path d="M22.7-32.2L22.7-32.2 22.7-25Q18.65-27.35 14.3-27.35L14.3-27.35Q12.35-27.35 11.33-26.55 10.3-25.75 10.3-24.5 10.3-23.25 11.55-22.28 12.8-21.3 15.3-20.2L15.3-20.2Q16.85-19.5 17.88-18.98 18.9-18.45 20.23-17.53 21.55-16.6 22.33-15.58 23.1-14.55 23.65-13.05 24.2-11.55 24.2-9.8L24.2-9.8Q24.2-5.25 20.85-2.43 17.5 0.4 11.95 0.4L11.95 0.4Q6 0.4 2.25-1.7L2.25-1.7 2.25-9.45Q6.8-6.15 11.95-6.15L11.95-6.15Q13.7-6.15 14.85-7.08 16-8 16-9.5L16-9.5Q16-10 15.85-10.45 15.7-10.9 15.3-11.3 14.9-11.7 14.53-11.98 14.15-12.25 13.43-12.63 12.7-13 12.2-13.25 11.7-13.5 10.73-13.95 9.75-14.4 9.15-14.65L9.15-14.65Q5.9-16.15 3.93-18.35 1.95-20.55 1.95-24.2L1.95-24.2Q1.95-28.55 5.15-31.23 8.35-33.9 14-33.9L14-33.9Q19.05-33.9 22.7-32.2ZM27.2-33.7L51.4-33.7 51.4-27.5 43.2-27.5 43.2 0 35.45 0 35.45-27.5 27.2-27.5 27.2-33.7ZM67.65-27.45L63.85-27.45 63.85-17.95 67.5-17.95Q72.5-17.95 72.5-22.85L72.5-22.85Q72.5-25 71.2-26.23 69.9-27.45 67.65-27.45L67.65-27.45ZM82.7 0L73.5 0 66.2-11.7 63.85-11.7 63.85 0 56.15 0 56.15-33.7 67.8-33.7Q73.45-33.7 76.87-30.7 80.3-27.7 80.3-22.9L80.3-22.9Q80.3-15.7 74.15-12.95L74.15-12.95 82.7 0ZM95.04 0L87.34 0 87.34-33.7 95.04-33.7 95.04 0ZM109.74 0L102.04 0 102.04-33.7 110.49-33.7 118.34-19.75Q119.99-16.8 121.22-14.23 122.44-11.65 122.79-10.6L122.79-10.6 123.19-9.5Q122.69-13.2 122.69-19.75L122.69-19.75 122.69-33.7 130.39-33.7 130.39 0 121.94 0 113.89-13.95Q112.29-16.65 111.07-19.28 109.84-21.9 109.39-23.15L109.39-23.15 108.99-24.4Q109.74-19.9 109.74-13.95L109.74-13.95 109.74 0ZM152.99-20.1L165.94-20.1 165.94-3.1Q161.14 0.4 153.84 0.4L153.84 0.4Q145.74 0.4 140.69-4.25 135.64-8.9 135.64-16.9L135.64-16.9Q135.64-24.8 140.91-29.55 146.19-34.3 154.29-34.3L154.29-34.3Q159.99-34.3 164.14-32.2L164.14-32.2 164.14-24.5Q159.34-27.25 154.29-27.25L154.29-27.25Q149.54-27.25 146.74-24.43 143.94-21.6 143.94-16.9L143.94-16.9Q143.94-12.15 146.69-9.35 149.44-6.55 154.19-6.55L154.19-6.55Q156.34-6.55 158.44-7.2L158.44-7.2 158.44-13.55 152.99-13.55 152.99-20.1ZM192.74-33.7L192.74-27.55 179.94-27.55 179.94-18.85 191.09-18.85 191.09-12.7 179.94-12.7 179.94 0 172.19 0 172.19-33.7 192.74-33.7ZM205.18-33.7L205.18-6.75 217.63-6.75 217.63 0 197.48 0 197.48-33.7 205.18-33.7ZM220.63-16.95L220.63-16.95Q220.63-24.7 225.11-29.48 229.58-34.25 237.03-34.25L237.03-34.25Q244.53-34.25 248.98-29.5 253.43-24.75 253.43-16.95L253.43-16.95Q253.43-9.2 248.96-4.42 244.48 0.35 237.03 0.35L237.03 0.35Q229.53 0.35 225.08-4.4 220.63-9.15 220.63-16.95ZM231.08-24.48Q228.88-21.7 228.88-16.95 228.88-12.2 231.08-9.43 233.28-6.65 237.03-6.65 240.78-6.65 242.98-9.43 245.18-12.2 245.18-16.95 245.18-21.7 242.98-24.48 240.78-27.25 237.03-27.25 233.28-27.25 231.08-24.48ZM273.63-21.3L276.98-33.2 282.68-33.2 285.98-21.3Q287.03-17.55 287.85-14.33 288.68-11.1 288.98-9.75L288.98-9.75 289.28-8.4Q289.93-12.85 292.08-21.35L292.08-21.35 295.18-33.7 303.03-33.7 294.03 0 285.43 0 282.48-10.65Q281.43-14.5 280.75-17.15 280.08-19.8 279.93-20.55L279.93-20.55 279.83-21.3Q279.68-19.25 277.13-10.65L277.13-10.65 274.03 0 265.43 0 256.38-33.7 264.48-33.7 267.58-21.3Q268.58-17.3 269.23-14.08 269.88-10.85 270.03-9.6L270.03-9.6 270.23-8.4Q271.08-12.3 273.63-21.3L273.63-21.3Z" opacity="1" transform="matrix(1,0,0,1,0,0)" fill="#010c80" class="wordmark-text-0" data-fill-palette-color="primary" id="text-0"/>
                      </svg>
                    </g>
                  </svg>
                </g>
              </svg>
            </g>
          </svg>
        </g>
        <g/>
      </svg>
    </g>
  </svg>
</svg>